<?xml version="1.0" standalone="no"?>
<!DOCTYPE svg PUBLIC "-//W3C//DTD SVG 20010904//EN"
 "http://www.w3.org/TR/2001/REC-SVG-20010904/DTD/svg10.dtd">
<svg version="1.0" xmlns="http://www.w3.org/2000/svg"
 width="256.000000pt" height="256.000000pt" viewBox="0 0 256.000000 256.000000"
 preserveAspectRatio="xMidYMid meet">

<g transform="translate(0.000000,256.000000) scale(0.100000,-0.100000)"
fill="#000000" stroke="none">
<path d="M823 2356 l-28 -24 -3 -151 -4 -151 -277 0 -278 0 -27 -25 c-36 -33
-36 -92 0 -126 22 -21 37 -24 113 -27 l87 -4 73 -731 c40 -402 78 -744 84
-761 26 -78 95 -145 168 -166 45 -13 1053 -13 1098 0 73 21 142 88 168 166 6
17 44 359 84 761 l73 731 87 4 c76 3 91 6 113 27 36 34 36 93 0 126 l-27 25
-278 0 -277 0 -4 151 -3 151 -28 24 -28 24 -429 0 -429 0 -28 -24z m767 -236
l0 -90 -310 0 -310 0 0 90 0 90 310 0 310 0 0 -90z m385 -297 c-3 -16 -34
-329 -70 -698 -36 -369 -70 -687 -76 -707 -18 -69 -9 -68 -549 -68 -540 0
-531 -1 -549 68 -6 20 -40 338 -76 707 -36 369 -67 682 -70 698 l-4 27 699 0
700 0 -5 -27z"/>
<path d="M839 1665 c-15 -8 -31 -27 -36 -42 -7 -20 4 -177 37 -537 l46 -509
28 -23 c15 -13 40 -24 55 -24 32 0 77 31 86 59 3 11 -15 246 -40 523 -49 530
-50 539 -101 558 -33 13 -44 12 -75 -5z"/>
<path d="M1237 1664 c-15 -8 -32 -26 -37 -40 -6 -15 -10 -234 -10 -530 l0
-506 29 -29 c40 -39 82 -39 122 0 l29 29 0 506 c0 297 -4 515 -10 530 -9 24
-56 56 -82 56 -7 -1 -26 -8 -41 -16z"/>
<path d="M1643 1670 c-48 -19 -50 -33 -98 -558 -25 -277 -43 -512 -40 -523 9
-28 54 -59 86 -59 15 0 40 11 55 24 l28 23 46 509 c33 361 44 517 37 537 -9
27 -52 58 -79 56 -7 0 -23 -4 -35 -9z"/>
</g>
</svg>
